<?xml version="1.0" encoding="utf-8"?>
<!-- Generator: Adobe Illustrator 25.1.0, SVG Export Plug-In . SVG Version: 6.00 Build 0)  -->
<svg version="1.1" id="Laag_1" xmlns="http://www.w3.org/2000/svg" xmlns:xlink="http://www.w3.org/1999/xlink" x="0px" y="0px"
	 viewBox="0 0 339.6 95.9" enable-background="new 0 0 339.6 95.9" xml:space="preserve">
<path fill="#5E284B" d="M78.6,42.4c-1.5-3-3.6-5.2-6.3-6.8c-2.7-1.5-5.8-2.3-9.3-2.3c-4,0-7.5,0.9-10.6,2.6c-2.2,1.2-4,2.7-5.5,4.6
	c-1.4-2.1-3.1-3.7-5.2-4.9c-2.7-1.5-5.8-2.3-9.3-2.3c-3.6,0-6.8,0.9-9.6,2.6c-1.2,0.7-2.3,1.6-3.2,2.5c0-1.3-0.4-2.4-1.3-3.3
	c-0.9-0.9-2-1.3-3.4-1.3c-1.3,0-2.5,0.4-3.4,1.3c-0.9,0.9-1.3,2-1.3,3.4v40.9c0,1.3,0.4,2.5,1.3,3.4c0.9,0.9,2,1.3,3.4,1.3
	c1.4,0,2.5-0.4,3.4-1.3c0.9-0.9,1.3-2,1.3-3.4V53.6c0-3.4,1-6.2,3.1-8.5c2.1-2.2,4.7-3.3,7.9-3.3c3.1,0,5.5,0.9,7.4,2.8
	c1.9,1.9,2.8,4.7,2.8,8.6v26.3c0,1.3,0.4,2.5,1.3,3.4c0.9,0.9,2,1.3,3.4,1.3c1.4,0,2.5-0.4,3.4-1.3c0.9-0.9,1.3-2,1.3-3.4V53.6
	c0-3.4,1-6.2,3.1-8.5c2.1-2.2,4.7-3.3,7.9-3.3c3.1,0,5.5,0.9,7.4,2.8c1.9,1.9,2.8,4.7,2.8,8.6v26.3c0,1.3,0.4,2.5,1.3,3.4
	c0.9,0.9,2,1.3,3.4,1.3c1.4,0,2.5-0.4,3.4-1.3c0.9-0.9,1.3-2,1.3-3.4V53.2C80.8,49,80.1,45.4,78.6,42.4z"/>
<path fill="#E94F35" d="M134.3,60.8c0.8-0.8,1.2-1.7,1.2-2.9c0-4.8-0.9-9.1-2.7-12.8c-1.8-3.7-4.4-6.6-7.9-8.7
	c-3.4-2.1-7.5-3.2-12.3-3.2c-4.8,0-9.1,1.1-12.9,3.3c-3.7,2.2-6.7,5.2-8.8,9c-2.1,3.8-3.2,8.3-3.2,13.3c0,5,1.1,9.4,3.4,13.2
	c2.2,3.8,5.3,6.8,9.3,9c3.9,2.2,8.5,3.3,13.5,3.3c2.8,0,5.8-0.5,8.9-1.6c3.1-1,5.7-2.4,7.8-4c1-0.8,1.5-1.7,1.5-2.8
	c-0.1-1.1-0.6-2.1-1.7-3c-0.8-0.7-1.7-1-2.8-1c-1.1,0-2.1,0.4-3,1.1c-1.2,0.9-2.8,1.7-4.8,2.4c-2,0.7-3.9,1.1-5.8,1.1
	c-3.5,0-6.6-0.8-9.3-2.3c-2.7-1.5-4.8-3.6-6.3-6.2c-1-1.8-1.7-3.7-2-5.8h34.9C132.5,61.9,133.5,61.5,134.3,60.8z M103.7,43.4
	c2.5-1.5,5.5-2.3,9-2.3c3.1,0,5.7,0.7,7.8,2.1c2.1,1.4,3.8,3.3,5,5.7c0.8,1.7,1.4,3.6,1.6,5.6H96.5c0.3-1.8,0.8-3.4,1.6-4.9
	C99.3,47,101.2,44.9,103.7,43.4z"/>
<path fill="#F7A600" d="M186.6,44c-1.9-3.5-4.6-6.1-7.9-7.9c-3.3-1.8-7.1-2.7-11.3-2.7c-4,0-7.7,0.9-10.9,2.7
	c-1.8,1-3.3,2.1-4.7,3.5v-1c0-1.4-0.4-2.5-1.3-3.4c-0.9-0.9-2-1.3-3.4-1.3c-1.3,0-2.5,0.4-3.4,1.3c-0.9,0.9-1.3,2-1.3,3.4v41
	c0,1.3,0.4,2.5,1.3,3.4c0.9,0.9,2,1.3,3.4,1.3c1.4,0,2.5-0.4,3.4-1.3c0.9-0.9,1.3-2,1.3-3.4V53.6c0-2.3,0.6-4.3,1.8-6
	c1.2-1.7,2.9-3.1,5-4.2c2.1-1,4.4-1.6,7-1.6c2.8,0,5.3,0.5,7.5,1.6c2.2,1.1,3.9,2.7,5.2,4.9s1.9,5.1,1.9,8.5v22.6
	c0,1.3,0.4,2.5,1.3,3.4c0.9,0.9,2,1.3,3.4,1.3c1.3,0,2.5-0.4,3.4-1.3c0.9-0.9,1.3-2,1.3-3.4V56.9C189.5,51.8,188.5,47.5,186.6,44z"
	/>
<path fill="#89CCCA" d="M221.7,84.2c-4.8,0-9.1-1.1-12.9-3.4c-3.8-2.2-6.9-5.3-9.1-9.1c-2.2-3.9-3.4-8.2-3.4-13c0-4.8,1-9.2,3.1-13
	c2.1-3.8,4.9-6.9,8.4-9.1c3.6-2.2,7.6-3.4,12-3.4c3.6,0,6.9,0.8,10,2.3c3.1,1.5,5.6,3.5,7.7,6.1V16.7c0-1.4,0.4-2.5,1.3-3.4
	c0.9-0.9,2-1.3,3.4-1.3c1.4,0,2.5,0.4,3.4,1.3c0.9,0.9,1.3,2,1.3,3.4v41.9c0,4.8-1.1,9.2-3.4,13c-2.2,3.9-5.3,6.9-9,9.1
	C230.8,83,226.5,84.2,221.7,84.2z M221.7,75.9c3.1,0,5.9-0.7,8.4-2.3c2.4-1.5,4.4-3.6,5.8-6.2c1.4-2.6,2.1-5.6,2.1-8.8
	c0-3.3-0.7-6.2-2.1-8.8c-1.4-2.6-3.3-4.6-5.8-6.1c-2.5-1.5-5.2-2.3-8.4-2.3c-3.1,0-5.8,0.8-8.3,2.3c-2.5,1.5-4.4,3.5-5.9,6.1
	c-1.4,2.6-2.2,5.5-2.2,8.8c0,3.2,0.7,6.2,2.2,8.8c1.4,2.6,3.4,4.7,5.9,6.2C215.9,75.1,218.6,75.9,221.7,75.9z"/>
<path fill="#363D47" d="M319.4,33.2c0,3.4-0.7,6.3-2.1,8.9c-1.4,2.6-3.3,4.6-5.7,6.1c-2.4,1.5-5.3,2.2-8.5,2.2c-3.2,0-6-0.7-8.5-2.2
	c-2.4-1.5-4.4-3.5-5.8-6.1c-1.4-2.6-2.1-5.5-2.1-8.9h-9c0,5,1.1,9.4,3.3,13.2c2.2,3.8,5.2,6.8,9,9c3.8,2.2,8.2,3.3,13.1,3.3
	c5,0,9.3-1.1,13.1-3.3c3.8-2.2,6.8-5.2,8.9-9c2.1-3.8,3.2-8.2,3.2-13.2H319.4z"/>
<path fill="#363D47" d="M259.7,75.1c1.4-2.6,3.3-4.6,5.8-6.1c2.4-1.5,5.3-2.2,8.5-2.2c3.2,0,6,0.7,8.5,2.2c2.4,1.5,4.4,3.5,5.7,6.1
	c1.4,2.6,2.1,5.6,2.1,9h9c0-5-1.1-9.4-3.3-13.3c-2.2-3.8-5.2-6.8-9-9c-3.8-2.2-8.1-3.3-13-3.3c-5,0-9.3,1.1-13.1,3.3
	c-3.8,2.2-6.8,5.2-9,9c-2.2,3.8-3.3,8.3-3.3,13.3h9C257.5,80.6,258.3,77.7,259.7,75.1z"/>
</svg>
